<svg width="512" height="512" viewBox="0 0 512 512" fill="none" xmlns="http://www.w3.org/2000/svg">
<rect width="512" height="512" rx="80" fill="#ED205A"/>
<g transform="translate(256, 256)">
<path d="M34.9332 10.7225C41.1629 12.348 47.2152 15.6772 50.7269 21.6612C58.4236 31.5129 57.4873 45.4428 46.6356 53.1396C35.7839 60.8363 22.854 59.9 15.1573 49.0483C13.6456 47.0643 12.9087 44.7328 12.8974 42.417L12.8571 42.4477L12.9034 41.9916C12.9203 41.4891 12.9712 40.9883 13.0558 40.4931L14.1705 29.5298L24.678 31.3349C25.4395 31.386 26.1947 31.5156 26.9306 31.7218L26.9335 31.7223L26.9332 31.7225Z" fill="white"/>
<path d="M15.9403 41.8869C16.0345 44.2008 15.4046 46.5635 13.9848 48.6142C10.5129 53.6293 3.6329 54.8803 -1.3822 51.4084C-6.3973 47.9365 -7.6483 41.0564 -4.1763 36.0414C-2.7566 33.9906 -0.767 32.5692 1.432 31.8429L1.3903 31.814L1.8385 31.7172C2.3216 31.5779 2.8136 31.4716 3.3107 31.399L14.0819 29.0713L15.6122 39.6224C15.7988 40.3624 15.909 41.1206 15.9402 41.8842L15.9407 41.8871L15.9403 41.8869Z" fill="white"/>
<path d="M2.8768 34.5727C0.7053 35.3773 -1.7364 35.5082 -4.1255 34.7917C-9.968 33.0394 -13.2838 26.8827 -11.5316 21.0402C-9.7793 15.1977 -3.6226 11.8819 2.2199 13.6342C4.609 14.3507 6.5756 15.8037 7.946 17.6706L7.9605 17.6221L8.1911 18.0184C8.4729 18.4348 8.726 18.8699 8.9486 19.3202L14.4909 28.845L4.9291 33.5608C4.283 33.967 3.5959 34.306 2.8793 34.5717L2.8767 34.573L2.8768 34.5727Z" fill="white"/>
<path d="M5.7964 19.8879C4.3601 18.0712 3.481 15.7895 3.4242 13.2959C3.2853 7.19793 8.116 2.14188 14.214 2.00292C20.312 1.86397 25.3681 6.69474 25.507 12.7927C25.5639 15.2864 24.7897 17.6057 23.4376 19.4859L23.4883 19.4847L23.1826 19.8265C22.8736 20.2232 22.5381 20.5983 22.1786 20.9492L14.8327 29.1636L7.3929 21.5271C6.807 21.0381 6.2722 20.4894 5.798 19.89L5.796 19.8879L5.7964 19.8879Z" fill="white"/>
<path d="M20.6633 18.1264C21.9472 16.199 23.8456 14.6579 26.1996 13.8333C31.9562 11.8168 38.2576 14.8487 40.2741 20.6053C42.2907 26.3619 39.2587 32.6633 33.5021 34.6799C31.1481 35.5045 28.703 35.4849 26.4971 34.78L26.5138 34.8278L26.0943 34.6427C25.6216 34.4715 25.1611 34.2683 24.7163 34.0348L14.634 29.5868L19.5977 20.1514C19.8817 19.443 20.2383 18.7648 20.6618 18.1286L20.6632 18.126L20.6633 18.1264Z" fill="white"/>
</g>
<circle cx="256" cy="256" r="8" fill="#D4144A"/>
</svg>