<svg width="512" height="512" viewBox="0 0 512 512" fill="none" xmlns="http://www.w3.org/2000/svg">
<rect width="512" height="512" rx="80" fill="#4F46E5"/>
<path d="M128 256C128 185.307 185.307 128 256 128C326.693 128 384 185.307 384 256C384 326.693 326.693 384 256 384C185.307 384 128 326.693 128 256Z" fill="white"/>
<path d="M256 192C222.863 192 196 218.863 196 252V260C196 293.137 222.863 320 256 320C289.137 320 316 293.137 316 260V252C316 218.863 289.137 192 256 192ZM256 224C271.464 224 284 236.536 284 252V260C284 275.464 271.464 288 256 288C240.536 288 228 275.464 228 260V252C228 236.536 240.536 224 256 224Z" fill="#4F46E5"/>
</svg>