<svg width="192" height="192" viewBox="0 0 192 192" fill="none" xmlns="http://www.w3.org/2000/svg">
<rect width="192" height="192" rx="32" fill="#4F46E5"/>
<path d="M48 96C48 69.4903 69.4903 48 96 48C122.51 48 144 69.4903 144 96C144 122.51 122.51 144 96 144C69.4903 144 48 122.51 48 96Z" fill="white"/>
<path d="M96 72C83.8497 72 74 81.8497 74 94V98C74 110.15 83.8497 120 96 120C108.15 120 118 110.15 118 98V94C118 81.8497 108.15 72 96 72ZM96 84C101.523 84 106 88.4772 106 94V98C106 103.523 101.523 108 96 108C90.4772 108 86 103.523 86 98V94C86 88.4772 90.4772 84 96 84Z" fill="#4F46E5"/>
</svg>