<svg width="209" height="52" viewBox="0 0 209 52" fill="none" xmlns="http://www.w3.org/2000/svg">
<path d="M38.9332 29.7225C41.1629 30.348 43.2152 31.6772 44.7269 33.6612C48.4236 38.5129 47.4873 45.4428 42.6356 49.1396C37.7839 52.8363 30.854 51.9 27.1573 47.0483C25.6456 45.0643 24.9087 42.7328 24.8974 40.417L24.8571 40.4477L24.9034 39.9916C24.9203 39.4891 24.9712 38.9883 25.0558 38.4931L26.1705 27.5298L36.678 29.3349C37.4395 29.386 38.1947 29.5156 38.9306 29.7218L38.9335 29.7223L38.9332 29.7225Z" fill="#ED205A"/>
<path d="M27.9403 39.8869C28.0345 42.2008 27.4046 44.5635 25.9848 46.6142C22.5129 51.6293 15.6329 52.8803 10.6178 49.4084C5.60273 45.9365 4.35175 39.0564 7.82366 34.0414C9.24339 31.9906 11.233 30.5692 13.432 29.8429L13.3903 29.814L13.8385 29.7172C14.3216 29.5779 14.8136 29.4716 15.3107 29.399L26.0819 27.0713L27.6122 37.6224C27.7988 38.3624 27.909 39.1206 27.9402 39.8842L27.9407 39.8871L27.9403 39.8869Z" fill="#ED205A"/>
<path d="M14.8768 32.5727C12.7053 33.3773 10.2636 33.5082 7.87449 32.7917C2.032 31.0394 -1.2838 24.8827 0.468432 19.0402C2.22067 13.1977 8.37741 9.88193 14.2199 11.6342C16.609 12.3507 18.5756 13.8037 19.946 15.6706L19.9605 15.6221L20.1911 16.0184C20.4729 16.4348 20.726 16.8699 20.9486 17.3202L26.4909 26.845L16.9291 31.5608C16.283 31.967 15.5959 32.306 14.8793 32.5717L14.8767 32.573L14.8768 32.5727Z" fill="#ED205A"/>
<path d="M17.7964 17.8879C16.3601 16.0712 15.481 13.7895 15.4242 11.2959C15.2853 5.19793 20.116 0.141876 26.214 0.00292401C32.312 -0.136028 37.3681 4.69474 37.507 10.7927C37.5639 13.2864 36.7897 15.6057 35.4376 17.4859L35.4883 17.4847L35.1826 17.8265C34.8736 18.2232 34.5381 18.5983 34.1786 18.9492L26.8327 27.1636L19.3929 19.5271C18.807 19.0381 18.2722 18.4894 17.798 17.89L17.796 17.8879L17.7964 17.8879Z" fill="#ED205A"/>
<path d="M32.6633 16.1264C33.9472 14.199 35.8456 12.6579 38.1996 11.8333C43.9562 9.81679 50.2576 12.8487 52.2741 18.6053C54.2907 24.3619 51.2587 30.6633 45.5021 32.6799C43.1481 33.5045 40.703 33.4849 38.4971 32.78L38.5138 32.8278L38.0943 32.6427C37.6216 32.4715 37.1611 32.2683 36.7163 32.0348L26.634 27.5868L31.5977 18.1514C31.8817 17.443 32.2383 16.7648 32.6618 16.1286L32.6632 16.126L32.6633 16.1264Z" fill="#ED205A"/>
<path d="M81.8982 24.5398C85.4182 25.5798 87.4182 28.0198 87.4182 31.5798C87.4182 36.5798 83.5382 39.6998 77.0182 39.6998H64.1782V11.6998H76.9782C82.4182 11.6998 85.5782 14.2598 85.5782 18.6998C85.5782 21.5798 84.2582 23.5398 81.8982 24.5398ZM80.5782 19.3398C80.5782 17.0598 79.2582 15.7798 76.9782 15.7798H69.0182V23.0198H76.9782C79.2582 23.0198 80.5782 21.6198 80.5782 19.3398ZM69.0182 35.6198H76.9782C80.4182 35.6198 82.4182 33.9798 82.4182 31.2198C82.4182 28.5798 80.4582 27.0198 77.1382 27.0198H69.0182V35.6198ZM100.62 40.2598C94.5004 40.2598 90.4204 36.0198 90.4204 29.6998C90.4204 23.3798 94.5004 19.1398 100.62 19.1398C106.7 19.1398 110.82 23.3798 110.82 29.6998C110.82 36.0198 106.7 40.2598 100.62 40.2598ZM100.62 36.2598C103.86 36.2598 106.06 33.6598 106.06 29.6998C106.06 25.7398 103.86 23.1398 100.62 23.1398C97.3404 23.1398 95.1804 25.7398 95.1804 29.6998C95.1804 33.6598 97.3404 36.2598 100.62 36.2598ZM122.27 40.2598C116.63 40.2598 112.91 37.3798 113.23 32.5398H117.63C117.35 35.0198 119.19 36.5798 122.31 36.5798C124.75 36.5798 126.39 35.6198 126.39 34.1798C126.39 30.1798 113.51 33.0598 113.51 25.5798C113.51 21.5798 117.23 19.1398 122.07 19.1398C127.43 19.1398 131.31 22.1398 130.47 26.6598H126.03C126.59 24.3798 124.79 22.8198 122.03 22.8198C119.71 22.8198 118.19 23.8598 118.19 25.2998C118.19 29.3398 131.11 26.2598 131.11 33.8598C131.11 37.8998 127.47 40.2598 122.27 40.2598ZM142.348 40.2598C136.708 40.2598 132.988 37.3798 133.308 32.5398H137.708C137.428 35.0198 139.268 36.5798 142.388 36.5798C144.828 36.5798 146.468 35.6198 146.468 34.1798C146.468 30.1798 133.588 33.0598 133.588 25.5798C133.588 21.5798 137.308 19.1398 142.148 19.1398C147.508 19.1398 151.388 22.1398 150.548 26.6598H146.108C146.668 24.3798 144.868 22.8198 142.108 22.8198C139.788 22.8198 138.268 23.8598 138.268 25.2998C138.268 29.3398 151.188 26.2598 151.188 33.8598C151.188 37.8998 147.548 40.2598 142.348 40.2598ZM163.706 40.2598C157.586 40.2598 153.506 36.0198 153.506 29.6998C153.506 23.3798 157.586 19.1398 163.706 19.1398C169.786 19.1398 173.906 23.3798 173.906 29.6998C173.906 36.0198 169.786 40.2598 163.706 40.2598ZM163.706 36.2598C166.946 36.2598 169.146 33.6598 169.146 29.6998C169.146 25.7398 166.946 23.1398 163.706 23.1398C160.426 23.1398 158.266 25.7398 158.266 29.6998C158.266 33.6598 160.426 36.2598 163.706 36.2598ZM200.636 19.1398C204.756 19.1398 206.916 22.0998 206.916 26.9798V39.6998H202.356V27.4598C202.356 24.8998 201.276 23.1798 199.116 23.1798C196.356 23.1798 194.436 25.8198 194.436 29.8998V39.6998H189.876V27.4598C189.876 24.8598 188.796 23.0998 186.596 23.0998C183.916 23.0998 181.876 25.7798 181.876 29.9398V39.6998H177.316V19.6998H181.876V23.2598C182.916 20.8998 185.156 19.1398 188.236 19.1398C191.156 19.1398 193.276 20.7798 194.116 23.3798C195.276 20.7398 197.636 19.1398 200.636 19.1398Z" fill="black"/>
<circle cx="26.9695" cy="28.0734" r="2.43019" fill="white"/>
</svg>
