<svg width="192" height="192" viewBox="0 0 192 192" fill="none" xmlns="http://www.w3.org/2000/svg">
<rect width="192" height="192" rx="32" fill="#ED205A"/>
<g transform="translate(96, 96)">
<path d="M12.9332 3.7225C15.1629 4.348 17.2152 5.6772 18.7269 7.6612C22.4236 12.5129 21.4873 19.4428 16.6356 23.1396C11.7839 26.8363 4.854 25.9 1.1573 21.0483C-0.3544 19.0643 -1.0913 16.7328 -1.1026 14.417L-1.1429 14.4477L-1.0966 13.9916C-1.0797 13.4891 -1.0288 12.9883 -0.9442 12.4931L0.1705 1.5298L10.678 3.3349C11.4395 3.386 12.1947 3.5156 12.9306 3.7218L12.9335 3.7223L12.9332 3.7225Z" fill="white"/>
<path d="M1.9403 13.8869C2.0345 16.2008 1.4046 18.5635 -0.0152 20.6142C-3.4871 25.6293 -10.3671 26.8803 -15.3822 23.4084C-20.3973 19.9365 -21.6483 13.0564 -18.1763 8.0414C-16.7566 5.9906 -14.767 4.5692 -12.568 3.8429L-12.6097 3.814L-12.1615 3.7172C-11.6784 3.5779 -11.1864 3.4716 -10.6893 3.399L0.0819 1.0713L1.6122 11.6224C1.7988 12.3624 1.909 13.1206 1.9402 13.8842L1.9407 13.8871L1.9403 13.8869Z" fill="white"/>
<path d="M-11.1232 6.5727C-13.2947 7.3773 -15.7364 7.5082 -18.1255 6.7917C-23.968 5.0394 -27.2838 -1.1173 -25.5316 -6.9598C-23.7793 -12.8023 -17.6226 -16.1181 -11.7801 -14.3658C-9.391 -13.6493 -7.4244 -12.1963 -6.054 -10.3294L-6.0395 -10.3779L-5.8089 -9.9816C-5.5271 -9.5652 -5.274 -9.1301 -5.0514 -8.6798L0.4909 0.845L-9.0709 5.5608C-9.717 5.967 -10.4041 6.306 -11.1207 6.5717L-11.1233 6.573L-11.1232 6.5727Z" fill="white"/>
<path d="M-8.2036 -8.1121C-9.6399 -9.9288 -10.519 -12.2105 -10.5758 -14.7041C-10.7147 -20.8021 -5.884 -25.8581 0.214 -25.9971C6.312 -26.1360 11.3681 -21.3053 11.507 -15.2073C11.5639 -12.7136 10.7897 -10.3943 9.4376 -8.5141L9.4883 -8.5153L9.1826 -8.1735C8.8736 -7.7768 8.5381 -7.4017 8.1786 -7.0508L0.8327 1.1636L-6.6071 -6.4729C-7.193 -6.9619 -7.7278 -7.5106 -8.202 -8.11L-8.204 -8.1121L-8.2036 -8.1121Z" fill="white"/>
<path d="M6.6633 -9.8736C7.9472 -11.801 9.8456 -13.3421 12.1996 -14.1667C17.9562 -16.1832 24.2576 -13.1513 26.2741 -7.3947C28.2907 -1.6381 25.2587 4.6633 19.5021 6.6799C17.1481 7.5045 14.703 7.4849 12.4971 6.78L12.5138 6.8278L12.0943 6.6427C11.6216 6.4715 11.1611 6.2683 10.7163 6.0348L0.634 1.5868L5.5977 -7.8486C5.8817 -8.557 6.2383 -9.2352 6.6618 -9.8714L6.6632 -9.874L6.6633 -9.8736Z" fill="white"/>
</g>
<circle cx="96" cy="96" r="4" fill="#D4144A"/>
</svg>